<svg xmlns="http://www.w3.org/2000/svg" xmlns:xlink="http://www.w3.org/1999/xlink" width="500" zoomAndPan="magnify" viewBox="0 0 375 374.999991" height="500" preserveAspectRatio="xMidYMid meet" version="1.0"><defs><g/><clipPath id="4c73963055"><path d="M 124.589844 124.441406 L 250.589844 124.441406 L 250.589844 279.691406 L 124.589844 279.691406 Z M 124.589844 124.441406 " clip-rule="nonzero"/></clipPath></defs><g clip-path="url(#4c73963055)"><path fill="#00c2cb" d="M 207.5625 166.527344 C 201.265625 164.367188 194.542969 163.167969 187.535156 163.167969 C 180.527344 163.167969 173.804688 164.367188 167.511719 166.527344 C 164.625 162.3125 162.910156 157.390625 162.910156 152.578125 C 162.910156 146.605469 165.542969 143.464844 169.800781 141.792969 C 170.761719 142.789062 172.105469 143.40625 173.59375 143.40625 C 175.796875 143.40625 177.683594 142.058594 178.476562 140.148438 C 179.800781 140.054688 181.171875 140 182.589844 139.96875 C 183.34375 141.972656 185.261719 143.40625 187.535156 143.40625 C 189.808594 143.40625 191.730469 141.972656 192.480469 139.96875 C 193.898438 140 195.269531 140.054688 196.597656 140.148438 C 197.386719 142.058594 199.277344 143.40625 201.480469 143.40625 C 202.96875 143.40625 204.308594 142.789062 205.273438 141.792969 C 209.535156 143.464844 212.160156 146.605469 212.160156 152.578125 C 212.160156 157.390625 210.453125 162.3125 207.5625 166.527344 Z M 219.984375 172.421875 C 225.148438 165.25 228.242188 156.746094 228.242188 148.449219 C 228.242188 128.1875 210.023438 124.433594 187.535156 124.433594 C 165.050781 124.433594 146.828125 128.1875 146.828125 148.449219 C 146.828125 156.746094 149.921875 165.25 155.089844 172.421875 C 136.929688 183.691406 124.789062 201.023438 124.789062 224.363281 C 124.789062 252.253906 141.640625 279.945312 187.535156 279.945312 C 232.273438 279.945312 250.28125 251.480469 250.28125 224.363281 C 250.28125 201.023438 238.152344 183.691406 219.984375 172.421875 " fill-opacity="1" fill-rule="nonzero"/></g><path fill="#0cc0df" d="M 236.011719 197.179688 C 242.320312 208.484375 243.417969 219.886719 238.472656 222.652344 C 233.519531 225.410156 224.386719 218.492188 218.078125 207.191406 C 211.769531 195.894531 210.671875 184.492188 215.617188 181.726562 C 220.570312 178.96875 229.695312 185.886719 236.011719 197.179688 " fill-opacity="1" fill-rule="nonzero"/><path fill="#000000" d="M 190.902344 249.699219 C 190.683594 249.699219 190.464844 249.6875 190.234375 249.671875 C 183.246094 249.109375 181.4375 240.074219 177.824219 222.0625 C 177.195312 218.925781 176.382812 214.875 175.519531 211.101562 C 175.492188 211.660156 175.46875 212.191406 175.449219 212.679688 C 175.210938 218.011719 174.984375 223.042969 173.75 226.472656 C 173.101562 228.28125 171.546875 229.617188 169.664062 229.992188 C 160.792969 231.742188 72.96875 230.484375 65.570312 230.085938 C 62.550781 229.925781 60.234375 227.34375 60.394531 224.324219 C 60.558594 221.304688 63.140625 218.984375 66.160156 219.148438 C 75.382812 219.644531 146.433594 220.445312 164.039062 219.550781 C 164.277344 217.351562 164.398438 214.589844 164.507812 212.191406 C 164.894531 203.511719 165.230469 196.015625 169.367188 192.363281 C 171.007812 190.914062 173.109375 190.210938 175.289062 190.386719 C 182.464844 190.960938 184.542969 199.851562 188.566406 219.910156 C 189.371094 223.921875 190.40625 229.085938 191.429688 233.21875 C 193.617188 227.347656 196.039062 219.019531 197.457031 214.148438 C 198.597656 210.226562 199.585938 206.835938 200.441406 204.269531 C 201.578125 200.871094 203.15625 196.226562 207.964844 196.601562 C 212.230469 196.945312 213.507812 200.390625 216.0625 207.253906 C 217.304688 210.601562 220.535156 219.292969 222.71875 221.144531 C 247.046875 221.929688 271.335938 221.804688 308.980469 220.710938 C 312.027344 220.664062 314.523438 223.003906 314.613281 226.023438 C 314.699219 229.046875 312.320312 231.570312 309.296875 231.660156 C 271.003906 232.773438 246.410156 232.886719 221.574219 232.066406 C 221.4375 232.0625 221.300781 232.050781 221.160156 232.039062 C 214.894531 231.355469 211.101562 224.476562 208.046875 216.957031 C 208.023438 217.039062 208 217.125 207.972656 217.210938 C 201.195312 240.503906 197.847656 249.699219 190.902344 249.699219 Z M 190.902344 249.699219 " fill-opacity="1" fill-rule="nonzero"/><path fill="#00a8ad" d="M 73.738281 213.039062 C 75.269531 213.003906 76.507812 212.96875 77.441406 215.011719 C 78.152344 216.578125 77.625 218.144531 77.621094 219.816406 C 77.605469 223.652344 77.730469 227.40625 77.699219 231.160156 C 77.675781 233.578125 78.40625 234.554688 75.890625 235.289062 C 74.148438 235.796875 71.925781 235.578125 70.070312 235.527344 C 66.292969 235.425781 67.648438 231.15625 67.867188 227.84375 C 68.265625 221.816406 65.75 212.71875 71.25 213.058594 Z M 73.738281 213.039062 " fill-opacity="1" fill-rule="nonzero"/><path fill="#00a8ad" d="M 80.007812 201.128906 C 76.945312 201.0625 74.472656 200.992188 72.613281 205.070312 C 71.191406 208.199219 72.246094 211.316406 72.257812 214.660156 C 72.28125 222.308594 72.03125 229.800781 72.101562 237.296875 C 72.148438 242.125 70.6875 244.070312 75.707031 245.539062 C 79.183594 246.554688 83.621094 246.109375 87.324219 246.011719 C 94.863281 245.8125 92.15625 237.285156 91.71875 230.679688 C 90.921875 218.648438 95.949219 200.492188 84.96875 201.164062 Z M 80.007812 201.128906 " fill-opacity="1" fill-rule="nonzero"/><path fill="#00c2cb" d="M 93.476562 183.160156 C 87.972656 183.039062 83.53125 182.914062 80.1875 190.246094 C 77.628906 195.867188 79.523438 201.472656 79.542969 207.484375 C 79.59375 221.238281 79.144531 234.707031 79.265625 248.183594 C 79.347656 256.863281 76.726562 260.363281 85.75 263 C 92 264.828125 99.980469 264.027344 106.632812 263.851562 C 120.1875 263.492188 115.320312 248.167969 114.535156 236.289062 C 113.105469 214.65625 122.140625 182.015625 102.394531 183.222656 Z M 93.476562 183.160156 " fill-opacity="1" fill-rule="nonzero"/><path fill="#00a8ad" d="M 111.101562 197.703125 C 111.105469 197.644531 111.105469 197.582031 111.089844 197.515625 C 110.179688 192.996094 108.308594 188.886719 103.746094 187.160156 C 101.730469 186.398438 99.117188 186.203125 97.203125 187.367188 C 95.152344 188.613281 96.976562 190.414062 98.363281 191.171875 C 100.34375 192.253906 102.542969 193.046875 104.109375 194.738281 C 105.890625 196.667969 105.800781 198.960938 106.441406 201.332031 C 106.921875 203.109375 109.140625 203.992188 110.394531 202.347656 C 111.457031 200.949219 111.179688 199.339844 111.101562 197.703125 Z M 111.101562 197.703125 " fill-opacity="1" fill-rule="nonzero"/><path fill="#00a8ad" d="M 304.089844 213.746094 C 305.621094 213.714844 306.859375 213.679688 307.792969 215.722656 C 308.503906 217.289062 307.976562 218.851562 307.972656 220.527344 C 307.960938 224.359375 308.082031 228.113281 308.050781 231.867188 C 308.027344 234.289062 308.757812 235.261719 306.242188 235.996094 C 304.5 236.507812 302.277344 236.285156 300.421875 236.234375 C 296.644531 236.132812 298 231.863281 298.21875 228.550781 C 298.617188 222.523438 296.101562 213.425781 301.601562 213.765625 Z M 304.089844 213.746094 " fill-opacity="1" fill-rule="nonzero"/><path fill="#00a8ad" d="M 295.957031 202.097656 C 299.019531 202.027344 301.492188 201.960938 303.351562 206.035156 C 304.773438 209.164062 303.71875 212.28125 303.707031 215.625 C 303.679688 223.273438 303.929688 230.765625 303.863281 238.261719 C 303.816406 243.089844 305.277344 245.039062 300.257812 246.503906 C 296.78125 247.519531 292.339844 247.074219 288.640625 246.976562 C 281.101562 246.777344 283.808594 238.253906 284.246094 231.644531 C 285.042969 219.613281 280.015625 201.457031 290.996094 202.128906 Z M 295.957031 202.097656 " fill-opacity="1" fill-rule="nonzero"/><path fill="#00c2cb" d="M 282.488281 184.125 C 287.992188 184.003906 292.433594 183.878906 295.773438 191.210938 C 298.335938 196.832031 296.441406 202.4375 296.421875 208.449219 C 296.371094 222.203125 296.820312 235.671875 296.699219 249.148438 C 296.617188 257.828125 299.238281 261.328125 290.214844 263.964844 C 283.964844 265.792969 275.984375 264.992188 269.332031 264.816406 C 255.777344 264.457031 260.644531 249.132812 261.429688 237.253906 C 262.859375 215.621094 253.824219 182.980469 273.566406 184.1875 Z M 282.488281 184.125 " fill-opacity="1" fill-rule="nonzero"/><path fill="#00a8ad" d="M 264.859375 198.667969 C 264.859375 198.609375 264.859375 198.546875 264.875 198.480469 C 265.785156 193.960938 267.65625 189.851562 272.21875 188.125 C 274.234375 187.363281 276.847656 187.167969 278.761719 188.332031 C 280.8125 189.578125 278.988281 191.378906 277.601562 192.136719 C 275.621094 193.21875 273.417969 194.011719 271.855469 195.703125 C 270.070312 197.632812 270.164062 199.925781 269.523438 202.300781 C 269.042969 204.074219 266.824219 204.957031 265.570312 203.3125 C 264.507812 201.914062 264.785156 200.308594 264.859375 198.667969 Z M 264.859375 198.667969 " fill-opacity="1" fill-rule="nonzero"/><g fill="#4d4d4d" fill-opacity="0.4"><g transform="translate(73.149585, 137.968003)"><g><path d="M -0.5 -21.84375 C 2.238281 -20.8125 3.960938 -19.265625 4.671875 -17.203125 C 5.390625 -15.140625 5.195312 -12.644531 4.09375 -9.71875 C 2.976562 -6.769531 1.476562 -4.753906 -0.40625 -3.671875 C -2.300781 -2.597656 -4.617188 -2.578125 -7.359375 -3.609375 L -7.640625 -3.71875 L -5.15625 -10.34375 L -4.90625 -10.25 C -3.90625 -9.875 -3.125 -9.789062 -2.5625 -10 C -2 -10.21875 -1.570312 -10.707031 -1.28125 -11.46875 C -0.988281 -12.238281 -0.984375 -12.890625 -1.265625 -13.421875 C -1.546875 -13.960938 -2.1875 -14.421875 -3.1875 -14.796875 L -17.515625 -20.1875 L -14.859375 -27.25 Z M -0.5 -21.84375 "/></g></g></g><g fill="#4d4d4d" fill-opacity="0.4"><g transform="translate(86.306933, 106.667574)"><g><path d="M 8.59375 -26.25 C 11.125 -24.257812 12.421875 -21.945312 12.484375 -19.3125 C 12.554688 -16.675781 11.4375 -13.890625 9.125 -10.953125 C 6.8125 -8.015625 4.363281 -6.265625 1.78125 -5.703125 C -0.789062 -5.140625 -3.34375 -5.851562 -5.875 -7.84375 L -16.921875 -16.515625 L -12.25 -22.453125 L -1.28125 -13.828125 C -0.25 -13.015625 0.789062 -12.644531 1.84375 -12.71875 C 2.90625 -12.789062 3.851562 -13.351562 4.6875 -14.40625 C 5.507812 -15.46875 5.828125 -16.523438 5.640625 -17.578125 C 5.460938 -18.640625 4.867188 -19.566406 3.859375 -20.359375 L -7.109375 -28.984375 L -2.453125 -34.921875 Z M 8.59375 -26.25 "/></g></g></g><g fill="#4d4d4d" fill-opacity="0.4"><g transform="translate(112.273654, 76.939366)"><g><path d="M -3.03125 -26.78125 C -0.53125 -28.457031 1.863281 -29.328125 4.15625 -29.390625 C 6.445312 -29.453125 8.28125 -28.503906 9.65625 -26.546875 L 9.875 -26.21875 L 4 -22.265625 L 3.921875 -22.375 C 3.546875 -22.9375 3.019531 -23.269531 2.34375 -23.375 C 1.675781 -23.476562 0.914062 -23.242188 0.0625 -22.671875 C -0.769531 -22.109375 -1.328125 -21.554688 -1.609375 -21.015625 C -1.890625 -20.472656 -1.910156 -20.019531 -1.671875 -19.65625 C -1.328125 -19.144531 -0.769531 -18.96875 0 -19.125 C 0.769531 -19.289062 1.914062 -19.695312 3.4375 -20.34375 C 5.21875 -21.070312 6.734375 -21.597656 7.984375 -21.921875 C 9.234375 -22.253906 10.503906 -22.273438 11.796875 -21.984375 C 13.085938 -21.691406 14.195312 -20.867188 15.125 -19.515625 C 16.675781 -17.210938 17.039062 -14.976562 16.21875 -12.8125 C 15.40625 -10.644531 13.695312 -8.691406 11.09375 -6.953125 C 8.050781 -4.910156 5.335938 -3.828125 2.953125 -3.703125 C 0.578125 -3.585938 -1.476562 -4.832031 -3.21875 -7.4375 L 2.71875 -11.421875 C 3.375 -10.429688 4.066406 -9.941406 4.796875 -9.953125 C 5.535156 -9.960938 6.441406 -10.328125 7.515625 -11.046875 C 8.316406 -11.578125 8.921875 -12.101562 9.328125 -12.625 C 9.734375 -13.144531 9.757812 -13.671875 9.40625 -14.203125 C 9.082031 -14.671875 8.550781 -14.828125 7.8125 -14.671875 C 7.082031 -14.523438 5.976562 -14.148438 4.5 -13.546875 C 2.675781 -12.816406 1.117188 -12.285156 -0.171875 -11.953125 C -1.460938 -11.628906 -2.78125 -11.632812 -4.125 -11.96875 C -5.46875 -12.300781 -6.628906 -13.195312 -7.609375 -14.65625 C -9.035156 -16.789062 -9.257812 -18.921875 -8.28125 -21.046875 C -7.3125 -23.171875 -5.5625 -25.082031 -3.03125 -26.78125 Z M -3.03125 -26.78125 "/></g></g></g><g fill="#4d4d4d" fill-opacity="0.4"><g transform="translate(142.952762, 58.386399)"><g><path d="M 10.359375 -21.390625 L 15.390625 -4.625 L 8.15625 -2.453125 L 3.125 -19.21875 L -4.28125 -16.984375 L -6.015625 -22.734375 L 15.984375 -29.34375 L 17.71875 -23.59375 Z M 10.359375 -21.390625 "/></g></g></g><g fill="#4d4d4d" fill-opacity="0.4"><g transform="translate(178.301744, 50.142542)"><g/></g></g><g fill="#4d4d4d" fill-opacity="0.4"><g transform="translate(201.228, 49.301651)"><g><path d="M 22.09375 5.265625 L 24.0625 -2.96875 C 24.300781 -4 24.585938 -5.039062 24.921875 -6.09375 C 25.265625 -7.15625 25.566406 -8.039062 25.828125 -8.75 C 26.085938 -9.457031 26.253906 -9.90625 26.328125 -10.09375 L 26.203125 -10.125 L 18.28125 4.359375 L 12.53125 2.984375 L 11.96875 -13.484375 L 11.828125 -13.515625 C 11.796875 -13.304688 11.742188 -12.832031 11.671875 -12.09375 C 11.609375 -11.351562 11.488281 -10.4375 11.3125 -9.34375 C 11.144531 -8.25 10.941406 -7.1875 10.703125 -6.15625 L 8.734375 2.078125 L 1.984375 0.46875 L 7.4375 -22.40625 L 17.828125 -19.9375 L 18.125 -5.90625 L 18.25 -5.875 L 24.828125 -18.265625 L 34.828125 -15.875 L 29.375 7 Z M 22.09375 5.265625 "/></g></g></g><g fill="#4d4d4d" fill-opacity="0.4"><g transform="translate(242.489325, 61.358043)"><g><path d="M 24.953125 -12.3125 C 28.347656 -10.101562 30.40625 -7.523438 31.125 -4.578125 C 31.851562 -1.640625 31.140625 1.488281 28.984375 4.8125 C 26.828125 8.132812 24.253906 10.0625 21.265625 10.59375 C 18.285156 11.132812 15.097656 10.300781 11.703125 8.09375 C 8.304688 5.882812 6.242188 3.3125 5.515625 0.375 C 4.796875 -2.550781 5.519531 -5.6875 7.6875 -9.03125 C 9.851562 -12.375 12.421875 -14.304688 15.390625 -14.828125 C 18.367188 -15.359375 21.554688 -14.519531 24.953125 -12.3125 Z M 21.875 -7.578125 C 20.519531 -8.460938 19.222656 -8.722656 17.984375 -8.359375 C 16.742188 -7.992188 15.671875 -7.113281 14.765625 -5.71875 L 13.578125 -3.890625 C 12.671875 -2.503906 12.304688 -1.171875 12.484375 0.109375 C 12.660156 1.390625 13.425781 2.472656 14.78125 3.359375 C 16.132812 4.234375 17.4375 4.492188 18.6875 4.140625 C 19.9375 3.785156 21.015625 2.914062 21.921875 1.53125 L 23.109375 -0.296875 C 24.015625 -1.691406 24.375 -3.035156 24.1875 -4.328125 C 24 -5.617188 23.226562 -6.703125 21.875 -7.578125 Z M 21.875 -7.578125 "/></g></g></g><g fill="#4d4d4d" fill-opacity="0.4"><g transform="translate(274.457175, 84.421202)"><g><path d="M 5.5625 6.96875 L 18.734375 -14.21875 L 23.765625 -7.921875 L 14.421875 5.578125 L 14.515625 5.6875 L 29.765625 -0.40625 L 34.578125 5.625 L 11.03125 13.8125 Z M 5.5625 6.96875 "/></g></g></g><g fill="#4d4d4d" fill-opacity="0.4"><g transform="translate(296.487359, 114.987596)"><g><path d="M 22.859375 -6.078125 L 30.15625 12.890625 L 24.890625 14.90625 L 20.3125 2.984375 L 17.28125 4.15625 L 21.203125 14.359375 L 16.15625 16.296875 L 12.234375 6.09375 L 8.890625 7.375 L 13.5625 19.515625 L 8.296875 21.546875 L 0.90625 2.359375 Z M 22.859375 -6.078125 "/></g></g></g><g fill="#4d4d4d" fill-opacity="1"><g transform="translate(71.639196, 136.457618)"><g><path d="M -0.5 -21.84375 C 2.238281 -20.8125 3.960938 -19.265625 4.671875 -17.203125 C 5.390625 -15.140625 5.195312 -12.644531 4.09375 -9.71875 C 2.976562 -6.769531 1.476562 -4.753906 -0.40625 -3.671875 C -2.300781 -2.597656 -4.617188 -2.578125 -7.359375 -3.609375 L -7.640625 -3.71875 L -5.15625 -10.34375 L -4.90625 -10.25 C -3.90625 -9.875 -3.125 -9.789062 -2.5625 -10 C -2 -10.21875 -1.570312 -10.707031 -1.28125 -11.46875 C -0.988281 -12.238281 -0.984375 -12.890625 -1.265625 -13.421875 C -1.546875 -13.960938 -2.1875 -14.421875 -3.1875 -14.796875 L -17.515625 -20.1875 L -14.859375 -27.25 Z M -0.5 -21.84375 "/></g></g></g><g fill="#4d4d4d" fill-opacity="1"><g transform="translate(84.796544, 105.157196)"><g><path d="M 8.59375 -26.25 C 11.125 -24.257812 12.421875 -21.945312 12.484375 -19.3125 C 12.554688 -16.675781 11.4375 -13.890625 9.125 -10.953125 C 6.8125 -8.015625 4.363281 -6.265625 1.78125 -5.703125 C -0.789062 -5.140625 -3.34375 -5.851562 -5.875 -7.84375 L -16.921875 -16.515625 L -12.25 -22.453125 L -1.28125 -13.828125 C -0.25 -13.015625 0.789062 -12.644531 1.84375 -12.71875 C 2.90625 -12.789062 3.851562 -13.351562 4.6875 -14.40625 C 5.507812 -15.46875 5.828125 -16.523438 5.640625 -17.578125 C 5.460938 -18.640625 4.867188 -19.566406 3.859375 -20.359375 L -7.109375 -28.984375 L -2.453125 -34.921875 Z M 8.59375 -26.25 "/></g></g></g><g fill="#4d4d4d" fill-opacity="1"><g transform="translate(110.763267, 75.428982)"><g><path d="M -3.03125 -26.78125 C -0.53125 -28.457031 1.863281 -29.328125 4.15625 -29.390625 C 6.445312 -29.453125 8.28125 -28.503906 9.65625 -26.546875 L 9.875 -26.21875 L 4 -22.265625 L 3.921875 -22.375 C 3.546875 -22.9375 3.019531 -23.269531 2.34375 -23.375 C 1.675781 -23.476562 0.914062 -23.242188 0.0625 -22.671875 C -0.769531 -22.109375 -1.328125 -21.554688 -1.609375 -21.015625 C -1.890625 -20.472656 -1.910156 -20.019531 -1.671875 -19.65625 C -1.328125 -19.144531 -0.769531 -18.96875 0 -19.125 C 0.769531 -19.289062 1.914062 -19.695312 3.4375 -20.34375 C 5.21875 -21.070312 6.734375 -21.597656 7.984375 -21.921875 C 9.234375 -22.253906 10.503906 -22.273438 11.796875 -21.984375 C 13.085938 -21.691406 14.195312 -20.867188 15.125 -19.515625 C 16.675781 -17.210938 17.039062 -14.976562 16.21875 -12.8125 C 15.40625 -10.644531 13.695312 -8.691406 11.09375 -6.953125 C 8.050781 -4.910156 5.335938 -3.828125 2.953125 -3.703125 C 0.578125 -3.585938 -1.476562 -4.832031 -3.21875 -7.4375 L 2.71875 -11.421875 C 3.375 -10.429688 4.066406 -9.941406 4.796875 -9.953125 C 5.535156 -9.960938 6.441406 -10.328125 7.515625 -11.046875 C 8.316406 -11.578125 8.921875 -12.101562 9.328125 -12.625 C 9.734375 -13.144531 9.757812 -13.671875 9.40625 -14.203125 C 9.082031 -14.671875 8.550781 -14.828125 7.8125 -14.671875 C 7.082031 -14.523438 5.976562 -14.148438 4.5 -13.546875 C 2.675781 -12.816406 1.117188 -12.285156 -0.171875 -11.953125 C -1.460938 -11.628906 -2.78125 -11.632812 -4.125 -11.96875 C -5.46875 -12.300781 -6.628906 -13.195312 -7.609375 -14.65625 C -9.035156 -16.789062 -9.257812 -18.921875 -8.28125 -21.046875 C -7.3125 -23.171875 -5.5625 -25.082031 -3.03125 -26.78125 Z M -3.03125 -26.78125 "/></g></g></g><g fill="#4d4d4d" fill-opacity="1"><g transform="translate(141.442363, 56.876011)"><g><path d="M 10.359375 -21.390625 L 15.390625 -4.625 L 8.15625 -2.453125 L 3.125 -19.21875 L -4.28125 -16.984375 L -6.015625 -22.734375 L 15.984375 -29.34375 L 17.71875 -23.59375 Z M 10.359375 -21.390625 "/></g></g></g><g fill="#4d4d4d" fill-opacity="1"><g transform="translate(176.791343, 48.632153)"><g/></g></g><g fill="#4d4d4d" fill-opacity="1"><g transform="translate(199.717613, 47.791262)"><g><path d="M 22.09375 5.265625 L 24.0625 -2.96875 C 24.300781 -4 24.585938 -5.039062 24.921875 -6.09375 C 25.265625 -7.15625 25.566406 -8.039062 25.828125 -8.75 C 26.085938 -9.457031 26.253906 -9.90625 26.328125 -10.09375 L 26.203125 -10.125 L 18.28125 4.359375 L 12.53125 2.984375 L 11.96875 -13.484375 L 11.828125 -13.515625 C 11.796875 -13.304688 11.742188 -12.832031 11.671875 -12.09375 C 11.609375 -11.351562 11.488281 -10.4375 11.3125 -9.34375 C 11.144531 -8.25 10.941406 -7.1875 10.703125 -6.15625 L 8.734375 2.078125 L 1.984375 0.46875 L 7.4375 -22.40625 L 17.828125 -19.9375 L 18.125 -5.90625 L 18.25 -5.875 L 24.828125 -18.265625 L 34.828125 -15.875 L 29.375 7 Z M 22.09375 5.265625 "/></g></g></g><g fill="#4d4d4d" fill-opacity="1"><g transform="translate(240.978952, 59.847654)"><g><path d="M 24.953125 -12.3125 C 28.347656 -10.101562 30.40625 -7.523438 31.125 -4.578125 C 31.851562 -1.640625 31.140625 1.488281 28.984375 4.8125 C 26.828125 8.132812 24.253906 10.0625 21.265625 10.59375 C 18.285156 11.132812 15.097656 10.300781 11.703125 8.09375 C 8.304688 5.882812 6.242188 3.3125 5.515625 0.375 C 4.796875 -2.550781 5.519531 -5.6875 7.6875 -9.03125 C 9.851562 -12.375 12.421875 -14.304688 15.390625 -14.828125 C 18.367188 -15.359375 21.554688 -14.519531 24.953125 -12.3125 Z M 21.875 -7.578125 C 20.519531 -8.460938 19.222656 -8.722656 17.984375 -8.359375 C 16.742188 -7.992188 15.671875 -7.113281 14.765625 -5.71875 L 13.578125 -3.890625 C 12.671875 -2.503906 12.304688 -1.171875 12.484375 0.109375 C 12.660156 1.390625 13.425781 2.472656 14.78125 3.359375 C 16.132812 4.234375 17.4375 4.492188 18.6875 4.140625 C 19.9375 3.785156 21.015625 2.914062 21.921875 1.53125 L 23.109375 -0.296875 C 24.015625 -1.691406 24.375 -3.035156 24.1875 -4.328125 C 24 -5.617188 23.226562 -6.703125 21.875 -7.578125 Z M 21.875 -7.578125 "/></g></g></g><g fill="#4d4d4d" fill-opacity="1"><g transform="translate(272.946776, 82.91081)"><g><path d="M 5.5625 6.96875 L 18.734375 -14.21875 L 23.765625 -7.921875 L 14.421875 5.578125 L 14.515625 5.6875 L 29.765625 -0.40625 L 34.578125 5.625 L 11.03125 13.8125 Z M 5.5625 6.96875 "/></g></g></g><g fill="#4d4d4d" fill-opacity="1"><g transform="translate(294.976957, 113.477204)"><g><path d="M 22.859375 -6.078125 L 30.15625 12.890625 L 24.890625 14.90625 L 20.3125 2.984375 L 17.28125 4.15625 L 21.203125 14.359375 L 16.15625 16.296875 L 12.234375 6.09375 L 8.890625 7.375 L 13.5625 19.515625 L 8.296875 21.546875 L 0.90625 2.359375 Z M 22.859375 -6.078125 "/></g></g></g><g fill="#4d4d4d" fill-opacity="0.4"><g transform="translate(69.611411, 307.12089)"><g><path d="M 15.859375 -17.265625 L 31.015625 -6.109375 L 27.703125 -1.609375 L 18.5625 -8.328125 L 16.1875 -5.109375 L 24.046875 0.6875 L 20.875 5 L 13.015625 -0.796875 L 8.046875 5.9375 L 2.03125 1.5 Z M 15.859375 -17.265625 "/></g></g></g><g fill="#4d4d4d" fill-opacity="0.4"><g transform="translate(102.016542, 328.634713)"><g><path d="M 2.5625 1.25 L 12.78125 -19.703125 L 19.515625 -16.421875 L 9.296875 4.53125 Z M 2.5625 1.25 "/></g></g></g><g fill="#4d4d4d" fill-opacity="0.4"><g transform="translate(129.043897, 340.68661)"><g><path d="M 19.9375 -12.5625 L 15.359375 4.1875 L 8.140625 2.21875 L 12.71875 -14.53125 L 5.328125 -16.546875 L 6.890625 -22.28125 L 28.859375 -16.28125 L 27.296875 -10.546875 Z M 19.9375 -12.5625 "/></g></g></g><g fill="#4d4d4d" fill-opacity="0.4"><g transform="translate(169.355734, 349.905334)"><g><path d="M 19.171875 0.71875 L 9.8125 -10.953125 L 9.390625 0.34375 L 2.515625 0.09375 L 3.375 -23.203125 L 9.90625 -22.96875 L 19.265625 -11.109375 L 19.6875 -22.59375 L 26.5625 -22.34375 L 25.703125 0.953125 Z M 19.171875 0.71875 "/></g></g></g><g fill="#4d4d4d" fill-opacity="0.4"><g transform="translate(214.433428, 349.425401)"><g><path d="M -1.984375 -23.359375 L 17.796875 -27.203125 L 18.859375 -21.71875 L 6.421875 -19.296875 L 7.046875 -16.140625 L 17.6875 -18.21875 L 18.703125 -12.96875 L 8.0625 -10.890625 L 8.75 -7.390625 L 21.421875 -9.859375 L 22.484375 -4.375 L 2.46875 -0.484375 Z M -1.984375 -23.359375 "/></g></g></g><g fill="#4d4d4d" fill-opacity="0.4"><g transform="translate(254.493925, 339.755617)"><g><path d="M 1.78125 -26.65625 C 4.519531 -27.84375 7.007812 -28.265625 9.25 -27.921875 C 11.5 -27.585938 13.117188 -26.34375 14.109375 -24.1875 L 14.28125 -23.8125 L 7.859375 -21.015625 L 7.796875 -21.140625 C 7.523438 -21.765625 7.066406 -22.179688 6.421875 -22.390625 C 5.785156 -22.609375 5.003906 -22.519531 4.078125 -22.125 C 3.160156 -21.71875 2.515625 -21.273438 2.140625 -20.796875 C 1.773438 -20.316406 1.675781 -19.878906 1.84375 -19.484375 C 2.09375 -18.929688 2.609375 -18.660156 3.390625 -18.671875 C 4.171875 -18.679688 5.359375 -18.867188 6.953125 -19.234375 C 8.828125 -19.628906 10.398438 -19.875 11.671875 -19.96875 C 12.953125 -20.070312 14.195312 -19.867188 15.40625 -19.359375 C 16.613281 -18.859375 17.550781 -17.867188 18.21875 -16.390625 C 19.320312 -13.859375 19.285156 -11.609375 18.109375 -9.640625 C 16.929688 -7.671875 14.914062 -6.0625 12.0625 -4.8125 C 8.726562 -3.363281 5.890625 -2.789062 3.546875 -3.09375 C 1.203125 -3.40625 -0.585938 -4.976562 -1.828125 -7.8125 L 4.671875 -10.65625 C 5.140625 -9.582031 5.734375 -8.984375 6.453125 -8.859375 C 7.171875 -8.742188 8.113281 -8.945312 9.28125 -9.46875 C 10.15625 -9.84375 10.835938 -10.242188 11.328125 -10.671875 C 11.828125 -11.109375 11.953125 -11.613281 11.703125 -12.1875 C 11.472656 -12.71875 10.984375 -12.972656 10.234375 -12.953125 C 9.484375 -12.929688 8.332031 -12.753906 6.78125 -12.421875 C 4.882812 -12.023438 3.273438 -11.78125 1.953125 -11.6875 C 0.640625 -11.601562 -0.640625 -11.84375 -1.890625 -12.40625 C -3.148438 -12.96875 -4.128906 -14.046875 -4.828125 -15.640625 C -5.847656 -17.984375 -5.691406 -20.101562 -4.359375 -22 C -3.023438 -23.894531 -0.976562 -25.445312 1.78125 -26.65625 Z M 1.78125 -26.65625 "/></g></g></g><g fill="#4d4d4d" fill-opacity="0.4"><g transform="translate(291.500222, 321.620499)"><g><path d="M -4.03125 -26.421875 C -1.613281 -28.179688 0.71875 -29.132812 2.96875 -29.28125 C 5.226562 -29.425781 7.082031 -28.554688 8.53125 -26.671875 L 8.765625 -26.34375 L 3.09375 -22.21875 L 3.015625 -22.328125 C 2.609375 -22.878906 2.070312 -23.1875 1.40625 -23.25 C 0.738281 -23.320312 -0.00390625 -23.0625 -0.828125 -22.46875 C -1.628906 -21.882812 -2.160156 -21.316406 -2.421875 -20.765625 C -2.679688 -20.222656 -2.679688 -19.773438 -2.421875 -19.421875 C -2.066406 -18.929688 -1.503906 -18.773438 -0.734375 -18.953125 C 0.0234375 -19.140625 1.140625 -19.582031 2.609375 -20.28125 C 4.359375 -21.070312 5.84375 -21.65625 7.0625 -22.03125 C 8.28125 -22.40625 9.535156 -22.472656 10.828125 -22.234375 C 12.117188 -22.003906 13.25 -21.242188 14.21875 -19.953125 C 15.851562 -17.722656 16.304688 -15.519531 15.578125 -13.34375 C 14.859375 -11.164062 13.238281 -9.160156 10.71875 -7.328125 C 7.78125 -5.179688 5.132812 -4.003906 2.78125 -3.796875 C 0.425781 -3.585938 -1.65625 -4.734375 -3.46875 -7.234375 L 2.265625 -11.40625 C 2.941406 -10.46875 3.644531 -10.015625 4.375 -10.046875 C 5.101562 -10.085938 5.984375 -10.488281 7.015625 -11.25 C 7.773438 -11.800781 8.347656 -12.34375 8.734375 -12.875 C 9.117188 -13.414062 9.128906 -13.9375 8.765625 -14.4375 C 8.429688 -14.90625 7.898438 -15.046875 7.171875 -14.859375 C 6.453125 -14.679688 5.375 -14.257812 3.9375 -13.59375 C 2.15625 -12.8125 0.632812 -12.234375 -0.625 -11.859375 C -1.894531 -11.484375 -3.203125 -11.429688 -4.546875 -11.703125 C -5.890625 -11.972656 -7.070312 -12.8125 -8.09375 -14.21875 C -9.601562 -16.28125 -9.910156 -18.382812 -9.015625 -20.53125 C -8.128906 -22.675781 -6.46875 -24.640625 -4.03125 -26.421875 Z M -4.03125 -26.421875 "/></g></g></g><g fill="#4d4d4d" fill-opacity="1"><g transform="translate(68.113622, 305.623118)"><g><path d="M 15.859375 -17.265625 L 31.015625 -6.109375 L 27.703125 -1.609375 L 18.5625 -8.328125 L 16.1875 -5.109375 L 24.046875 0.6875 L 20.875 5 L 13.015625 -0.796875 L 8.046875 5.9375 L 2.03125 1.5 Z M 15.859375 -17.265625 "/></g></g></g><g fill="#4d4d4d" fill-opacity="1"><g transform="translate(100.518748, 327.136909)"><g><path d="M 2.5625 1.25 L 12.78125 -19.703125 L 19.515625 -16.421875 L 9.296875 4.53125 Z M 2.5625 1.25 "/></g></g></g><g fill="#4d4d4d" fill-opacity="1"><g transform="translate(127.54611, 339.188837)"><g><path d="M 19.9375 -12.5625 L 15.359375 4.1875 L 8.140625 2.21875 L 12.71875 -14.53125 L 5.328125 -16.546875 L 6.890625 -22.28125 L 28.859375 -16.28125 L 27.296875 -10.546875 Z M 19.9375 -12.5625 "/></g></g></g><g fill="#4d4d4d" fill-opacity="1"><g transform="translate(167.857944, 348.407562)"><g><path d="M 19.171875 0.71875 L 9.8125 -10.953125 L 9.390625 0.34375 L 2.515625 0.09375 L 3.375 -23.203125 L 9.90625 -22.96875 L 19.265625 -11.109375 L 19.6875 -22.59375 L 26.5625 -22.34375 L 25.703125 0.953125 Z M 19.171875 0.71875 "/></g></g></g><g fill="#4d4d4d" fill-opacity="1"><g transform="translate(212.935641, 347.9276)"><g><path d="M -1.984375 -23.359375 L 17.796875 -27.203125 L 18.859375 -21.71875 L 6.421875 -19.296875 L 7.046875 -16.140625 L 17.6875 -18.21875 L 18.703125 -12.96875 L 8.0625 -10.890625 L 8.75 -7.390625 L 21.421875 -9.859375 L 22.484375 -4.375 L 2.46875 -0.484375 Z M -1.984375 -23.359375 "/></g></g></g><g fill="#4d4d4d" fill-opacity="1"><g transform="translate(252.996136, 338.257844)"><g><path d="M 1.78125 -26.65625 C 4.519531 -27.84375 7.007812 -28.265625 9.25 -27.921875 C 11.5 -27.585938 13.117188 -26.34375 14.109375 -24.1875 L 14.28125 -23.8125 L 7.859375 -21.015625 L 7.796875 -21.140625 C 7.523438 -21.765625 7.066406 -22.179688 6.421875 -22.390625 C 5.785156 -22.609375 5.003906 -22.519531 4.078125 -22.125 C 3.160156 -21.71875 2.515625 -21.273438 2.140625 -20.796875 C 1.773438 -20.316406 1.675781 -19.878906 1.84375 -19.484375 C 2.09375 -18.929688 2.609375 -18.660156 3.390625 -18.671875 C 4.171875 -18.679688 5.359375 -18.867188 6.953125 -19.234375 C 8.828125 -19.628906 10.398438 -19.875 11.671875 -19.96875 C 12.953125 -20.070312 14.195312 -19.867188 15.40625 -19.359375 C 16.613281 -18.859375 17.550781 -17.867188 18.21875 -16.390625 C 19.320312 -13.859375 19.285156 -11.609375 18.109375 -9.640625 C 16.929688 -7.671875 14.914062 -6.0625 12.0625 -4.8125 C 8.726562 -3.363281 5.890625 -2.789062 3.546875 -3.09375 C 1.203125 -3.40625 -0.585938 -4.976562 -1.828125 -7.8125 L 4.671875 -10.65625 C 5.140625 -9.582031 5.734375 -8.984375 6.453125 -8.859375 C 7.171875 -8.742188 8.113281 -8.945312 9.28125 -9.46875 C 10.15625 -9.84375 10.835938 -10.242188 11.328125 -10.671875 C 11.828125 -11.109375 11.953125 -11.613281 11.703125 -12.1875 C 11.472656 -12.71875 10.984375 -12.972656 10.234375 -12.953125 C 9.484375 -12.929688 8.332031 -12.753906 6.78125 -12.421875 C 4.882812 -12.023438 3.273438 -11.78125 1.953125 -11.6875 C 0.640625 -11.601562 -0.640625 -11.84375 -1.890625 -12.40625 C -3.148438 -12.96875 -4.128906 -14.046875 -4.828125 -15.640625 C -5.847656 -17.984375 -5.691406 -20.101562 -4.359375 -22 C -3.023438 -23.894531 -0.976562 -25.445312 1.78125 -26.65625 Z M 1.78125 -26.65625 "/></g></g></g><g fill="#4d4d4d" fill-opacity="1"><g transform="translate(290.002449, 320.122727)"><g><path d="M -4.03125 -26.421875 C -1.613281 -28.179688 0.71875 -29.132812 2.96875 -29.28125 C 5.226562 -29.425781 7.082031 -28.554688 8.53125 -26.671875 L 8.765625 -26.34375 L 3.09375 -22.21875 L 3.015625 -22.328125 C 2.609375 -22.878906 2.070312 -23.1875 1.40625 -23.25 C 0.738281 -23.320312 -0.00390625 -23.0625 -0.828125 -22.46875 C -1.628906 -21.882812 -2.160156 -21.316406 -2.421875 -20.765625 C -2.679688 -20.222656 -2.679688 -19.773438 -2.421875 -19.421875 C -2.066406 -18.929688 -1.503906 -18.773438 -0.734375 -18.953125 C 0.0234375 -19.140625 1.140625 -19.582031 2.609375 -20.28125 C 4.359375 -21.070312 5.84375 -21.65625 7.0625 -22.03125 C 8.28125 -22.40625 9.535156 -22.472656 10.828125 -22.234375 C 12.117188 -22.003906 13.25 -21.242188 14.21875 -19.953125 C 15.851562 -17.722656 16.304688 -15.519531 15.578125 -13.34375 C 14.859375 -11.164062 13.238281 -9.160156 10.71875 -7.328125 C 7.78125 -5.179688 5.132812 -4.003906 2.78125 -3.796875 C 0.425781 -3.585938 -1.65625 -4.734375 -3.46875 -7.234375 L 2.265625 -11.40625 C 2.941406 -10.46875 3.644531 -10.015625 4.375 -10.046875 C 5.101562 -10.085938 5.984375 -10.488281 7.015625 -11.25 C 7.773438 -11.800781 8.347656 -12.34375 8.734375 -12.875 C 9.117188 -13.414062 9.128906 -13.9375 8.765625 -14.4375 C 8.429688 -14.90625 7.898438 -15.046875 7.171875 -14.859375 C 6.453125 -14.679688 5.375 -14.257812 3.9375 -13.59375 C 2.15625 -12.8125 0.632812 -12.234375 -0.625 -11.859375 C -1.894531 -11.484375 -3.203125 -11.429688 -4.546875 -11.703125 C -5.890625 -11.972656 -7.070312 -12.8125 -8.09375 -14.21875 C -9.601562 -16.28125 -9.910156 -18.382812 -9.015625 -20.53125 C -8.128906 -22.675781 -6.46875 -24.640625 -4.03125 -26.421875 Z M -4.03125 -26.421875 "/></g></g></g><g fill="#4d4d4d" fill-opacity="0.302"><g transform="translate(112.184207, 108.140426)"><g><path d="M 4.4375 0 L 2.375 0 L 0.25 -9.28125 L 2.078125 -9.28125 L 3.484375 -2.75 L 3.640625 -2.75 L 5.3125 -9.28125 L 6.875 -9.28125 L 8.5625 -2.75 L 8.734375 -2.75 L 10.140625 -9.28125 L 11.90625 -9.28125 L 9.78125 0 L 7.71875 0 L 6.09375 -5.984375 L 5.96875 -5.984375 Z M 4.4375 0 "/></g></g></g><g fill="#4d4d4d" fill-opacity="0.302"><g transform="translate(124.329969, 108.140426)"><g><path d="M 3.046875 0 L 1.203125 0 L 1.203125 -9.28125 L 3.046875 -9.28125 Z M 3.046875 0 "/></g></g></g><g fill="#4d4d4d" fill-opacity="0.302"><g transform="translate(128.581621, 108.140426)"><g><path d="M 7.4375 -9.28125 L 7.4375 -7.734375 L 4.765625 -7.734375 L 4.765625 0 L 2.9375 0 L 2.9375 -7.734375 L 0.25 -7.734375 L 0.25 -9.28125 Z M 7.4375 -9.28125 "/></g></g></g><g fill="#4d4d4d" fill-opacity="0.302"><g transform="translate(136.272668, 108.140426)"><g><path d="M 7.203125 -5.796875 L 7.203125 -9.28125 L 9.03125 -9.28125 L 9.03125 0 L 7.203125 0 L 7.203125 -4.234375 L 3.046875 -4.234375 L 3.046875 0 L 1.203125 0 L 1.203125 -9.28125 L 3.046875 -9.28125 L 3.046875 -5.796875 Z M 7.203125 -5.796875 "/></g></g></g><g fill="#4d4d4d" fill-opacity="0.302"><g transform="translate(146.508366, 108.140426)"><g/></g></g><g fill="#4d4d4d" fill-opacity="0.302"><g transform="translate(149.573368, 108.140426)"><g><path d="M 8.90625 0 L 6.96875 0 L 6.28125 -2.140625 L 2.71875 -2.140625 L 2.03125 0 L 0.140625 0 L 3.34375 -9.28125 L 5.703125 -9.28125 Z M 4.40625 -7.34375 L 3.21875 -3.6875 L 5.765625 -3.6875 L 4.578125 -7.34375 Z M 4.40625 -7.34375 "/></g></g></g><g fill="#4d4d4d" fill-opacity="0.302"><g transform="translate(158.616065, 108.140426)"><g><path d="M 4.921875 0.140625 C 3.640625 0.140625 2.691406 -0.160156 2.078125 -0.765625 C 1.460938 -1.378906 1.15625 -2.285156 1.15625 -3.484375 L 1.15625 -9.28125 L 2.953125 -9.28125 L 2.953125 -3.484375 C 2.953125 -2.804688 3.113281 -2.296875 3.4375 -1.953125 C 3.757812 -1.617188 4.253906 -1.453125 4.921875 -1.453125 C 6.234375 -1.453125 6.890625 -2.128906 6.890625 -3.484375 L 6.890625 -9.28125 L 8.6875 -9.28125 L 8.6875 -3.484375 C 8.6875 -2.285156 8.378906 -1.378906 7.765625 -0.765625 C 7.148438 -0.160156 6.203125 0.140625 4.921875 0.140625 Z M 4.921875 0.140625 "/></g></g></g><g fill="#4d4d4d" fill-opacity="0.302"><g transform="translate(168.451976, 108.140426)"><g><path d="M 7.4375 -9.28125 L 7.4375 -7.734375 L 4.765625 -7.734375 L 4.765625 0 L 2.9375 0 L 2.9375 -7.734375 L 0.25 -7.734375 L 0.25 -9.28125 Z M 7.4375 -9.28125 "/></g></g></g><g fill="#4d4d4d" fill-opacity="0.302"><g transform="translate(176.143023, 108.140426)"><g><path d="M 4.921875 0.140625 C 3.640625 0.140625 2.691406 -0.160156 2.078125 -0.765625 C 1.460938 -1.378906 1.15625 -2.285156 1.15625 -3.484375 L 1.15625 -9.28125 L 2.953125 -9.28125 L 2.953125 -3.484375 C 2.953125 -2.804688 3.113281 -2.296875 3.4375 -1.953125 C 3.757812 -1.617188 4.253906 -1.453125 4.921875 -1.453125 C 6.234375 -1.453125 6.890625 -2.128906 6.890625 -3.484375 L 6.890625 -9.28125 L 8.6875 -9.28125 L 8.6875 -3.484375 C 8.6875 -2.285156 8.378906 -1.378906 7.765625 -0.765625 C 7.148438 -0.160156 6.203125 0.140625 4.921875 0.140625 Z M 4.921875 0.140625 "/></g></g></g><g fill="#4d4d4d" fill-opacity="0.302"><g transform="translate(185.978933, 108.140426)"><g><path d="M 2.890625 0 L 1.203125 0 L 1.203125 -9.28125 L 3.609375 -9.28125 L 5.953125 -2.453125 L 6.09375 -2.453125 L 8.421875 -9.28125 L 10.765625 -9.28125 L 10.765625 0 L 9.03125 0 L 9.03125 -6.125 L 8.875 -6.15625 L 6.71875 0 L 5.1875 0 L 3.046875 -6.15625 L 2.890625 -6.125 Z M 2.890625 0 "/></g></g></g><g fill="#4d4d4d" fill-opacity="0.302"><g transform="translate(197.953366, 108.140426)"><g><path d="M 2.984375 0 L 1.203125 0 L 1.203125 -9.28125 L 3.3125 -9.28125 L 7.03125 -3.296875 L 7.203125 -3.328125 L 7.203125 -9.28125 L 8.96875 -9.28125 L 8.96875 0 L 7.078125 0 L 3.140625 -6.390625 L 2.984375 -6.359375 Z M 2.984375 0 "/></g></g></g><g fill="#4d4d4d" fill-opacity="0.302"><g transform="translate(208.125607, 108.140426)"><g/></g></g><g fill="#4d4d4d" fill-opacity="0.302"><g transform="translate(211.190609, 108.140426)"><g><path d="M 2.984375 0 L 1.203125 0 L 1.203125 -9.28125 L 3.3125 -9.28125 L 7.03125 -3.296875 L 7.203125 -3.328125 L 7.203125 -9.28125 L 8.96875 -9.28125 L 8.96875 0 L 7.078125 0 L 3.140625 -6.390625 L 2.984375 -6.359375 Z M 2.984375 0 "/></g></g></g><g fill="#4d4d4d" fill-opacity="0.302"><g transform="translate(221.362849, 108.140426)"><g><path d="M 3.046875 -4.078125 L 3.046875 -1.53125 L 7.46875 -1.53125 L 7.46875 0 L 1.203125 0 L 1.203125 -9.28125 L 7.375 -9.28125 L 7.375 -7.75 L 3.046875 -7.75 L 3.046875 -5.578125 L 6.828125 -5.578125 L 6.828125 -4.078125 Z M 3.046875 -4.078125 "/></g></g></g><g fill="#4d4d4d" fill-opacity="0.302"><g transform="translate(229.339461, 108.140426)"><g><path d="M 3.046875 -9.28125 L 3.046875 -1.53125 L 7.21875 -1.53125 L 7.21875 0 L 1.203125 0 L 1.203125 -9.28125 Z M 3.046875 -9.28125 "/></g></g></g><g fill="#4d4d4d" fill-opacity="0.302"><g transform="translate(236.852827, 108.140426)"><g><path d="M 4.109375 0.140625 C 3.472656 0.140625 2.898438 0.0625 2.390625 -0.09375 C 1.890625 -0.257812 1.472656 -0.472656 1.140625 -0.734375 C 0.804688 -0.992188 0.550781 -1.273438 0.375 -1.578125 L 1.390625 -2.8125 L 1.546875 -2.8125 C 1.828125 -2.394531 2.179688 -2.0625 2.609375 -1.8125 C 3.035156 -1.570312 3.535156 -1.453125 4.109375 -1.453125 C 4.597656 -1.453125 4.96875 -1.554688 5.21875 -1.765625 C 5.46875 -1.972656 5.59375 -2.257812 5.59375 -2.625 C 5.59375 -2.84375 5.550781 -3.023438 5.46875 -3.171875 C 5.394531 -3.316406 5.265625 -3.441406 5.078125 -3.546875 C 4.890625 -3.660156 4.640625 -3.753906 4.328125 -3.828125 L 3.125 -4.09375 C 2.289062 -4.289062 1.671875 -4.609375 1.265625 -5.046875 C 0.859375 -5.492188 0.65625 -6.066406 0.65625 -6.765625 C 0.65625 -7.296875 0.785156 -7.757812 1.046875 -8.15625 C 1.304688 -8.550781 1.6875 -8.859375 2.1875 -9.078125 C 2.695312 -9.296875 3.300781 -9.40625 4 -9.40625 C 4.707031 -9.40625 5.316406 -9.3125 5.828125 -9.125 C 6.335938 -8.9375 6.769531 -8.648438 7.125 -8.265625 L 6.21875 -7.015625 L 6.0625 -7.015625 C 5.789062 -7.296875 5.484375 -7.503906 5.140625 -7.640625 C 4.804688 -7.773438 4.425781 -7.84375 4 -7.84375 C 3.488281 -7.84375 3.101562 -7.753906 2.84375 -7.578125 C 2.582031 -7.398438 2.453125 -7.15625 2.453125 -6.84375 C 2.453125 -6.550781 2.539062 -6.316406 2.71875 -6.140625 C 2.90625 -5.972656 3.226562 -5.835938 3.6875 -5.734375 L 4.90625 -5.484375 C 5.800781 -5.296875 6.453125 -4.972656 6.859375 -4.515625 C 7.265625 -4.054688 7.46875 -3.460938 7.46875 -2.734375 C 7.46875 -2.148438 7.34375 -1.644531 7.09375 -1.21875 C 6.84375 -0.789062 6.46875 -0.457031 5.96875 -0.21875 C 5.46875 0.0195312 4.847656 0.140625 4.109375 0.140625 Z M 4.109375 0.140625 "/></g></g></g><g fill="#4d4d4d" fill-opacity="0.302"><g transform="translate(244.823087, 108.140426)"><g><path d="M 5.0625 0.140625 C 4.207031 0.140625 3.453125 -0.03125 2.796875 -0.375 C 2.148438 -0.726562 1.644531 -1.257812 1.28125 -1.96875 C 0.914062 -2.6875 0.734375 -3.578125 0.734375 -4.640625 C 0.734375 -5.703125 0.914062 -6.585938 1.28125 -7.296875 C 1.644531 -8.015625 2.148438 -8.546875 2.796875 -8.890625 C 3.453125 -9.234375 4.207031 -9.40625 5.0625 -9.40625 C 5.90625 -9.40625 6.648438 -9.234375 7.296875 -8.890625 C 7.953125 -8.546875 8.460938 -8.015625 8.828125 -7.296875 C 9.191406 -6.585938 9.375 -5.703125 9.375 -4.640625 C 9.375 -3.578125 9.191406 -2.6875 8.828125 -1.96875 C 8.460938 -1.257812 7.953125 -0.726562 7.296875 -0.375 C 6.648438 -0.03125 5.90625 0.140625 5.0625 0.140625 Z M 5.0625 -1.453125 C 5.84375 -1.453125 6.441406 -1.707031 6.859375 -2.21875 C 7.273438 -2.726562 7.484375 -3.535156 7.484375 -4.640625 C 7.484375 -5.742188 7.273438 -6.550781 6.859375 -7.0625 C 6.441406 -7.570312 5.84375 -7.828125 5.0625 -7.828125 C 4.269531 -7.828125 3.664062 -7.570312 3.25 -7.0625 C 2.832031 -6.550781 2.625 -5.742188 2.625 -4.640625 C 2.625 -3.535156 2.832031 -2.726562 3.25 -2.21875 C 3.664062 -1.707031 4.269531 -1.453125 5.0625 -1.453125 Z M 5.0625 -1.453125 "/></g></g></g><g fill="#4d4d4d" fill-opacity="0.302"><g transform="translate(254.93187, 108.140426)"><g><path d="M 2.984375 0 L 1.203125 0 L 1.203125 -9.28125 L 3.3125 -9.28125 L 7.03125 -3.296875 L 7.203125 -3.328125 L 7.203125 -9.28125 L 8.96875 -9.28125 L 8.96875 0 L 7.078125 0 L 3.140625 -6.390625 L 2.984375 -6.359375 Z M 2.984375 0 "/></g></g></g><g fill="#4d4d4d" fill-opacity="0.502"><g transform="translate(111.60968, 107.5659)"><g><path d="M 4.4375 0 L 2.375 0 L 0.25 -9.28125 L 2.078125 -9.28125 L 3.484375 -2.75 L 3.640625 -2.75 L 5.3125 -9.28125 L 6.875 -9.28125 L 8.5625 -2.75 L 8.734375 -2.75 L 10.140625 -9.28125 L 11.90625 -9.28125 L 9.78125 0 L 7.71875 0 L 6.09375 -5.984375 L 5.96875 -5.984375 Z M 4.4375 0 "/></g></g></g><g fill="#4d4d4d" fill-opacity="0.502"><g transform="translate(123.755443, 107.5659)"><g><path d="M 3.046875 0 L 1.203125 0 L 1.203125 -9.28125 L 3.046875 -9.28125 Z M 3.046875 0 "/></g></g></g><g fill="#4d4d4d" fill-opacity="0.502"><g transform="translate(128.007094, 107.5659)"><g><path d="M 7.4375 -9.28125 L 7.4375 -7.734375 L 4.765625 -7.734375 L 4.765625 0 L 2.9375 0 L 2.9375 -7.734375 L 0.25 -7.734375 L 0.25 -9.28125 Z M 7.4375 -9.28125 "/></g></g></g><g fill="#4d4d4d" fill-opacity="0.502"><g transform="translate(135.698141, 107.5659)"><g><path d="M 7.203125 -5.796875 L 7.203125 -9.28125 L 9.03125 -9.28125 L 9.03125 0 L 7.203125 0 L 7.203125 -4.234375 L 3.046875 -4.234375 L 3.046875 0 L 1.203125 0 L 1.203125 -9.28125 L 3.046875 -9.28125 L 3.046875 -5.796875 Z M 7.203125 -5.796875 "/></g></g></g><g fill="#4d4d4d" fill-opacity="0.502"><g transform="translate(145.93384, 107.5659)"><g/></g></g><g fill="#4d4d4d" fill-opacity="0.502"><g transform="translate(148.998842, 107.5659)"><g><path d="M 8.90625 0 L 6.96875 0 L 6.28125 -2.140625 L 2.71875 -2.140625 L 2.03125 0 L 0.140625 0 L 3.34375 -9.28125 L 5.703125 -9.28125 Z M 4.40625 -7.34375 L 3.21875 -3.6875 L 5.765625 -3.6875 L 4.578125 -7.34375 Z M 4.40625 -7.34375 "/></g></g></g><g fill="#4d4d4d" fill-opacity="0.502"><g transform="translate(158.041539, 107.5659)"><g><path d="M 4.921875 0.140625 C 3.640625 0.140625 2.691406 -0.160156 2.078125 -0.765625 C 1.460938 -1.378906 1.15625 -2.285156 1.15625 -3.484375 L 1.15625 -9.28125 L 2.953125 -9.28125 L 2.953125 -3.484375 C 2.953125 -2.804688 3.113281 -2.296875 3.4375 -1.953125 C 3.757812 -1.617188 4.253906 -1.453125 4.921875 -1.453125 C 6.234375 -1.453125 6.890625 -2.128906 6.890625 -3.484375 L 6.890625 -9.28125 L 8.6875 -9.28125 L 8.6875 -3.484375 C 8.6875 -2.285156 8.378906 -1.378906 7.765625 -0.765625 C 7.148438 -0.160156 6.203125 0.140625 4.921875 0.140625 Z M 4.921875 0.140625 "/></g></g></g><g fill="#4d4d4d" fill-opacity="0.502"><g transform="translate(167.877449, 107.5659)"><g><path d="M 7.4375 -9.28125 L 7.4375 -7.734375 L 4.765625 -7.734375 L 4.765625 0 L 2.9375 0 L 2.9375 -7.734375 L 0.25 -7.734375 L 0.25 -9.28125 Z M 7.4375 -9.28125 "/></g></g></g><g fill="#4d4d4d" fill-opacity="0.502"><g transform="translate(175.568496, 107.5659)"><g><path d="M 4.921875 0.140625 C 3.640625 0.140625 2.691406 -0.160156 2.078125 -0.765625 C 1.460938 -1.378906 1.15625 -2.285156 1.15625 -3.484375 L 1.15625 -9.28125 L 2.953125 -9.28125 L 2.953125 -3.484375 C 2.953125 -2.804688 3.113281 -2.296875 3.4375 -1.953125 C 3.757812 -1.617188 4.253906 -1.453125 4.921875 -1.453125 C 6.234375 -1.453125 6.890625 -2.128906 6.890625 -3.484375 L 6.890625 -9.28125 L 8.6875 -9.28125 L 8.6875 -3.484375 C 8.6875 -2.285156 8.378906 -1.378906 7.765625 -0.765625 C 7.148438 -0.160156 6.203125 0.140625 4.921875 0.140625 Z M 4.921875 0.140625 "/></g></g></g><g fill="#4d4d4d" fill-opacity="0.502"><g transform="translate(185.404406, 107.5659)"><g><path d="M 2.890625 0 L 1.203125 0 L 1.203125 -9.28125 L 3.609375 -9.28125 L 5.953125 -2.453125 L 6.09375 -2.453125 L 8.421875 -9.28125 L 10.765625 -9.28125 L 10.765625 0 L 9.03125 0 L 9.03125 -6.125 L 8.875 -6.15625 L 6.71875 0 L 5.1875 0 L 3.046875 -6.15625 L 2.890625 -6.125 Z M 2.890625 0 "/></g></g></g><g fill="#4d4d4d" fill-opacity="0.502"><g transform="translate(197.37884, 107.5659)"><g><path d="M 2.984375 0 L 1.203125 0 L 1.203125 -9.28125 L 3.3125 -9.28125 L 7.03125 -3.296875 L 7.203125 -3.328125 L 7.203125 -9.28125 L 8.96875 -9.28125 L 8.96875 0 L 7.078125 0 L 3.140625 -6.390625 L 2.984375 -6.359375 Z M 2.984375 0 "/></g></g></g><g fill="#4d4d4d" fill-opacity="0.502"><g transform="translate(207.55108, 107.5659)"><g/></g></g><g fill="#4d4d4d" fill-opacity="0.502"><g transform="translate(210.616082, 107.5659)"><g><path d="M 2.984375 0 L 1.203125 0 L 1.203125 -9.28125 L 3.3125 -9.28125 L 7.03125 -3.296875 L 7.203125 -3.328125 L 7.203125 -9.28125 L 8.96875 -9.28125 L 8.96875 0 L 7.078125 0 L 3.140625 -6.390625 L 2.984375 -6.359375 Z M 2.984375 0 "/></g></g></g><g fill="#4d4d4d" fill-opacity="0.502"><g transform="translate(220.788323, 107.5659)"><g><path d="M 3.046875 -4.078125 L 3.046875 -1.53125 L 7.46875 -1.53125 L 7.46875 0 L 1.203125 0 L 1.203125 -9.28125 L 7.375 -9.28125 L 7.375 -7.75 L 3.046875 -7.75 L 3.046875 -5.578125 L 6.828125 -5.578125 L 6.828125 -4.078125 Z M 3.046875 -4.078125 "/></g></g></g><g fill="#4d4d4d" fill-opacity="0.502"><g transform="translate(228.764935, 107.5659)"><g><path d="M 3.046875 -9.28125 L 3.046875 -1.53125 L 7.21875 -1.53125 L 7.21875 0 L 1.203125 0 L 1.203125 -9.28125 Z M 3.046875 -9.28125 "/></g></g></g><g fill="#4d4d4d" fill-opacity="0.502"><g transform="translate(236.278301, 107.5659)"><g><path d="M 4.109375 0.140625 C 3.472656 0.140625 2.898438 0.0625 2.390625 -0.09375 C 1.890625 -0.257812 1.472656 -0.472656 1.140625 -0.734375 C 0.804688 -0.992188 0.550781 -1.273438 0.375 -1.578125 L 1.390625 -2.8125 L 1.546875 -2.8125 C 1.828125 -2.394531 2.179688 -2.0625 2.609375 -1.8125 C 3.035156 -1.570312 3.535156 -1.453125 4.109375 -1.453125 C 4.597656 -1.453125 4.96875 -1.554688 5.21875 -1.765625 C 5.46875 -1.972656 5.59375 -2.257812 5.59375 -2.625 C 5.59375 -2.84375 5.550781 -3.023438 5.46875 -3.171875 C 5.394531 -3.316406 5.265625 -3.441406 5.078125 -3.546875 C 4.890625 -3.660156 4.640625 -3.753906 4.328125 -3.828125 L 3.125 -4.09375 C 2.289062 -4.289062 1.671875 -4.609375 1.265625 -5.046875 C 0.859375 -5.492188 0.65625 -6.066406 0.65625 -6.765625 C 0.65625 -7.296875 0.785156 -7.757812 1.046875 -8.15625 C 1.304688 -8.550781 1.6875 -8.859375 2.1875 -9.078125 C 2.695312 -9.296875 3.300781 -9.40625 4 -9.40625 C 4.707031 -9.40625 5.316406 -9.3125 5.828125 -9.125 C 6.335938 -8.9375 6.769531 -8.648438 7.125 -8.265625 L 6.21875 -7.015625 L 6.0625 -7.015625 C 5.789062 -7.296875 5.484375 -7.503906 5.140625 -7.640625 C 4.804688 -7.773438 4.425781 -7.84375 4 -7.84375 C 3.488281 -7.84375 3.101562 -7.753906 2.84375 -7.578125 C 2.582031 -7.398438 2.453125 -7.15625 2.453125 -6.84375 C 2.453125 -6.550781 2.539062 -6.316406 2.71875 -6.140625 C 2.90625 -5.972656 3.226562 -5.835938 3.6875 -5.734375 L 4.90625 -5.484375 C 5.800781 -5.296875 6.453125 -4.972656 6.859375 -4.515625 C 7.265625 -4.054688 7.46875 -3.460938 7.46875 -2.734375 C 7.46875 -2.148438 7.34375 -1.644531 7.09375 -1.21875 C 6.84375 -0.789062 6.46875 -0.457031 5.96875 -0.21875 C 5.46875 0.0195312 4.847656 0.140625 4.109375 0.140625 Z M 4.109375 0.140625 "/></g></g></g><g fill="#4d4d4d" fill-opacity="0.502"><g transform="translate(244.248561, 107.5659)"><g><path d="M 5.0625 0.140625 C 4.207031 0.140625 3.453125 -0.03125 2.796875 -0.375 C 2.148438 -0.726562 1.644531 -1.257812 1.28125 -1.96875 C 0.914062 -2.6875 0.734375 -3.578125 0.734375 -4.640625 C 0.734375 -5.703125 0.914062 -6.585938 1.28125 -7.296875 C 1.644531 -8.015625 2.148438 -8.546875 2.796875 -8.890625 C 3.453125 -9.234375 4.207031 -9.40625 5.0625 -9.40625 C 5.90625 -9.40625 6.648438 -9.234375 7.296875 -8.890625 C 7.953125 -8.546875 8.460938 -8.015625 8.828125 -7.296875 C 9.191406 -6.585938 9.375 -5.703125 9.375 -4.640625 C 9.375 -3.578125 9.191406 -2.6875 8.828125 -1.96875 C 8.460938 -1.257812 7.953125 -0.726562 7.296875 -0.375 C 6.648438 -0.03125 5.90625 0.140625 5.0625 0.140625 Z M 5.0625 -1.453125 C 5.84375 -1.453125 6.441406 -1.707031 6.859375 -2.21875 C 7.273438 -2.726562 7.484375 -3.535156 7.484375 -4.640625 C 7.484375 -5.742188 7.273438 -6.550781 6.859375 -7.0625 C 6.441406 -7.570312 5.84375 -7.828125 5.0625 -7.828125 C 4.269531 -7.828125 3.664062 -7.570312 3.25 -7.0625 C 2.832031 -6.550781 2.625 -5.742188 2.625 -4.640625 C 2.625 -3.535156 2.832031 -2.726562 3.25 -2.21875 C 3.664062 -1.707031 4.269531 -1.453125 5.0625 -1.453125 Z M 5.0625 -1.453125 "/></g></g></g><g fill="#4d4d4d" fill-opacity="0.502"><g transform="translate(254.357344, 107.5659)"><g><path d="M 2.984375 0 L 1.203125 0 L 1.203125 -9.28125 L 3.3125 -9.28125 L 7.03125 -3.296875 L 7.203125 -3.328125 L 7.203125 -9.28125 L 8.96875 -9.28125 L 8.96875 0 L 7.078125 0 L 3.140625 -6.390625 L 2.984375 -6.359375 Z M 2.984375 0 "/></g></g></g><g fill="#4d4d4d" fill-opacity="1"><g transform="translate(111.035154, 106.991374)"><g><path d="M 4.4375 0 L 2.375 0 L 0.25 -9.28125 L 2.078125 -9.28125 L 3.484375 -2.75 L 3.640625 -2.75 L 5.3125 -9.28125 L 6.875 -9.28125 L 8.5625 -2.75 L 8.734375 -2.75 L 10.140625 -9.28125 L 11.90625 -9.28125 L 9.78125 0 L 7.71875 0 L 6.09375 -5.984375 L 5.96875 -5.984375 Z M 4.4375 0 "/></g></g></g><g fill="#4d4d4d" fill-opacity="1"><g transform="translate(123.180917, 106.991374)"><g><path d="M 3.046875 0 L 1.203125 0 L 1.203125 -9.28125 L 3.046875 -9.28125 Z M 3.046875 0 "/></g></g></g><g fill="#4d4d4d" fill-opacity="1"><g transform="translate(127.432568, 106.991374)"><g><path d="M 7.4375 -9.28125 L 7.4375 -7.734375 L 4.765625 -7.734375 L 4.765625 0 L 2.9375 0 L 2.9375 -7.734375 L 0.25 -7.734375 L 0.25 -9.28125 Z M 7.4375 -9.28125 "/></g></g></g><g fill="#4d4d4d" fill-opacity="1"><g transform="translate(135.123615, 106.991374)"><g><path d="M 7.203125 -5.796875 L 7.203125 -9.28125 L 9.03125 -9.28125 L 9.03125 0 L 7.203125 0 L 7.203125 -4.234375 L 3.046875 -4.234375 L 3.046875 0 L 1.203125 0 L 1.203125 -9.28125 L 3.046875 -9.28125 L 3.046875 -5.796875 Z M 7.203125 -5.796875 "/></g></g></g><g fill="#4d4d4d" fill-opacity="1"><g transform="translate(145.359313, 106.991374)"><g/></g></g><g fill="#4d4d4d" fill-opacity="1"><g transform="translate(148.424315, 106.991374)"><g><path d="M 8.90625 0 L 6.96875 0 L 6.28125 -2.140625 L 2.71875 -2.140625 L 2.03125 0 L 0.140625 0 L 3.34375 -9.28125 L 5.703125 -9.28125 Z M 4.40625 -7.34375 L 3.21875 -3.6875 L 5.765625 -3.6875 L 4.578125 -7.34375 Z M 4.40625 -7.34375 "/></g></g></g><g fill="#4d4d4d" fill-opacity="1"><g transform="translate(157.467013, 106.991374)"><g><path d="M 4.921875 0.140625 C 3.640625 0.140625 2.691406 -0.160156 2.078125 -0.765625 C 1.460938 -1.378906 1.15625 -2.285156 1.15625 -3.484375 L 1.15625 -9.28125 L 2.953125 -9.28125 L 2.953125 -3.484375 C 2.953125 -2.804688 3.113281 -2.296875 3.4375 -1.953125 C 3.757812 -1.617188 4.253906 -1.453125 4.921875 -1.453125 C 6.234375 -1.453125 6.890625 -2.128906 6.890625 -3.484375 L 6.890625 -9.28125 L 8.6875 -9.28125 L 8.6875 -3.484375 C 8.6875 -2.285156 8.378906 -1.378906 7.765625 -0.765625 C 7.148438 -0.160156 6.203125 0.140625 4.921875 0.140625 Z M 4.921875 0.140625 "/></g></g></g><g fill="#4d4d4d" fill-opacity="1"><g transform="translate(167.302923, 106.991374)"><g><path d="M 7.4375 -9.28125 L 7.4375 -7.734375 L 4.765625 -7.734375 L 4.765625 0 L 2.9375 0 L 2.9375 -7.734375 L 0.25 -7.734375 L 0.25 -9.28125 Z M 7.4375 -9.28125 "/></g></g></g><g fill="#4d4d4d" fill-opacity="1"><g transform="translate(174.99397, 106.991374)"><g><path d="M 4.921875 0.140625 C 3.640625 0.140625 2.691406 -0.160156 2.078125 -0.765625 C 1.460938 -1.378906 1.15625 -2.285156 1.15625 -3.484375 L 1.15625 -9.28125 L 2.953125 -9.28125 L 2.953125 -3.484375 C 2.953125 -2.804688 3.113281 -2.296875 3.4375 -1.953125 C 3.757812 -1.617188 4.253906 -1.453125 4.921875 -1.453125 C 6.234375 -1.453125 6.890625 -2.128906 6.890625 -3.484375 L 6.890625 -9.28125 L 8.6875 -9.28125 L 8.6875 -3.484375 C 8.6875 -2.285156 8.378906 -1.378906 7.765625 -0.765625 C 7.148438 -0.160156 6.203125 0.140625 4.921875 0.140625 Z M 4.921875 0.140625 "/></g></g></g><g fill="#4d4d4d" fill-opacity="1"><g transform="translate(184.82988, 106.991374)"><g><path d="M 2.890625 0 L 1.203125 0 L 1.203125 -9.28125 L 3.609375 -9.28125 L 5.953125 -2.453125 L 6.09375 -2.453125 L 8.421875 -9.28125 L 10.765625 -9.28125 L 10.765625 0 L 9.03125 0 L 9.03125 -6.125 L 8.875 -6.15625 L 6.71875 0 L 5.1875 0 L 3.046875 -6.15625 L 2.890625 -6.125 Z M 2.890625 0 "/></g></g></g><g fill="#4d4d4d" fill-opacity="1"><g transform="translate(196.804313, 106.991374)"><g><path d="M 2.984375 0 L 1.203125 0 L 1.203125 -9.28125 L 3.3125 -9.28125 L 7.03125 -3.296875 L 7.203125 -3.328125 L 7.203125 -9.28125 L 8.96875 -9.28125 L 8.96875 0 L 7.078125 0 L 3.140625 -6.390625 L 2.984375 -6.359375 Z M 2.984375 0 "/></g></g></g><g fill="#4d4d4d" fill-opacity="1"><g transform="translate(206.976554, 106.991374)"><g/></g></g><g fill="#4d4d4d" fill-opacity="1"><g transform="translate(210.041556, 106.991374)"><g><path d="M 2.984375 0 L 1.203125 0 L 1.203125 -9.28125 L 3.3125 -9.28125 L 7.03125 -3.296875 L 7.203125 -3.328125 L 7.203125 -9.28125 L 8.96875 -9.28125 L 8.96875 0 L 7.078125 0 L 3.140625 -6.390625 L 2.984375 -6.359375 Z M 2.984375 0 "/></g></g></g><g fill="#4d4d4d" fill-opacity="1"><g transform="translate(220.213797, 106.991374)"><g><path d="M 3.046875 -4.078125 L 3.046875 -1.53125 L 7.46875 -1.53125 L 7.46875 0 L 1.203125 0 L 1.203125 -9.28125 L 7.375 -9.28125 L 7.375 -7.75 L 3.046875 -7.75 L 3.046875 -5.578125 L 6.828125 -5.578125 L 6.828125 -4.078125 Z M 3.046875 -4.078125 "/></g></g></g><g fill="#4d4d4d" fill-opacity="1"><g transform="translate(228.190408, 106.991374)"><g><path d="M 3.046875 -9.28125 L 3.046875 -1.53125 L 7.21875 -1.53125 L 7.21875 0 L 1.203125 0 L 1.203125 -9.28125 Z M 3.046875 -9.28125 "/></g></g></g><g fill="#4d4d4d" fill-opacity="1"><g transform="translate(235.703774, 106.991374)"><g><path d="M 4.109375 0.140625 C 3.472656 0.140625 2.898438 0.0625 2.390625 -0.09375 C 1.890625 -0.257812 1.472656 -0.472656 1.140625 -0.734375 C 0.804688 -0.992188 0.550781 -1.273438 0.375 -1.578125 L 1.390625 -2.8125 L 1.546875 -2.8125 C 1.828125 -2.394531 2.179688 -2.0625 2.609375 -1.8125 C 3.035156 -1.570312 3.535156 -1.453125 4.109375 -1.453125 C 4.597656 -1.453125 4.96875 -1.554688 5.21875 -1.765625 C 5.46875 -1.972656 5.59375 -2.257812 5.59375 -2.625 C 5.59375 -2.84375 5.550781 -3.023438 5.46875 -3.171875 C 5.394531 -3.316406 5.265625 -3.441406 5.078125 -3.546875 C 4.890625 -3.660156 4.640625 -3.753906 4.328125 -3.828125 L 3.125 -4.09375 C 2.289062 -4.289062 1.671875 -4.609375 1.265625 -5.046875 C 0.859375 -5.492188 0.65625 -6.066406 0.65625 -6.765625 C 0.65625 -7.296875 0.785156 -7.757812 1.046875 -8.15625 C 1.304688 -8.550781 1.6875 -8.859375 2.1875 -9.078125 C 2.695312 -9.296875 3.300781 -9.40625 4 -9.40625 C 4.707031 -9.40625 5.316406 -9.3125 5.828125 -9.125 C 6.335938 -8.9375 6.769531 -8.648438 7.125 -8.265625 L 6.21875 -7.015625 L 6.0625 -7.015625 C 5.789062 -7.296875 5.484375 -7.503906 5.140625 -7.640625 C 4.804688 -7.773438 4.425781 -7.84375 4 -7.84375 C 3.488281 -7.84375 3.101562 -7.753906 2.84375 -7.578125 C 2.582031 -7.398438 2.453125 -7.15625 2.453125 -6.84375 C 2.453125 -6.550781 2.539062 -6.316406 2.71875 -6.140625 C 2.90625 -5.972656 3.226562 -5.835938 3.6875 -5.734375 L 4.90625 -5.484375 C 5.800781 -5.296875 6.453125 -4.972656 6.859375 -4.515625 C 7.265625 -4.054688 7.46875 -3.460938 7.46875 -2.734375 C 7.46875 -2.148438 7.34375 -1.644531 7.09375 -1.21875 C 6.84375 -0.789062 6.46875 -0.457031 5.96875 -0.21875 C 5.46875 0.0195312 4.847656 0.140625 4.109375 0.140625 Z M 4.109375 0.140625 "/></g></g></g><g fill="#4d4d4d" fill-opacity="1"><g transform="translate(243.674034, 106.991374)"><g><path d="M 5.0625 0.140625 C 4.207031 0.140625 3.453125 -0.03125 2.796875 -0.375 C 2.148438 -0.726562 1.644531 -1.257812 1.28125 -1.96875 C 0.914062 -2.6875 0.734375 -3.578125 0.734375 -4.640625 C 0.734375 -5.703125 0.914062 -6.585938 1.28125 -7.296875 C 1.644531 -8.015625 2.148438 -8.546875 2.796875 -8.890625 C 3.453125 -9.234375 4.207031 -9.40625 5.0625 -9.40625 C 5.90625 -9.40625 6.648438 -9.234375 7.296875 -8.890625 C 7.953125 -8.546875 8.460938 -8.015625 8.828125 -7.296875 C 9.191406 -6.585938 9.375 -5.703125 9.375 -4.640625 C 9.375 -3.578125 9.191406 -2.6875 8.828125 -1.96875 C 8.460938 -1.257812 7.953125 -0.726562 7.296875 -0.375 C 6.648438 -0.03125 5.90625 0.140625 5.0625 0.140625 Z M 5.0625 -1.453125 C 5.84375 -1.453125 6.441406 -1.707031 6.859375 -2.21875 C 7.273438 -2.726562 7.484375 -3.535156 7.484375 -4.640625 C 7.484375 -5.742188 7.273438 -6.550781 6.859375 -7.0625 C 6.441406 -7.570312 5.84375 -7.828125 5.0625 -7.828125 C 4.269531 -7.828125 3.664062 -7.570312 3.25 -7.0625 C 2.832031 -6.550781 2.625 -5.742188 2.625 -4.640625 C 2.625 -3.535156 2.832031 -2.726562 3.25 -2.21875 C 3.664062 -1.707031 4.269531 -1.453125 5.0625 -1.453125 Z M 5.0625 -1.453125 "/></g></g></g><g fill="#4d4d4d" fill-opacity="1"><g transform="translate(253.782818, 106.991374)"><g><path d="M 2.984375 0 L 1.203125 0 L 1.203125 -9.28125 L 3.3125 -9.28125 L 7.03125 -3.296875 L 7.203125 -3.328125 L 7.203125 -9.28125 L 8.96875 -9.28125 L 8.96875 0 L 7.078125 0 L 3.140625 -6.390625 L 2.984375 -6.359375 Z M 2.984375 0 "/></g></g></g></svg>